<svg width="202" height="173" viewBox="0 0 202 173" fill="none" xmlns="http://www.w3.org/2000/svg">
<path d="M103.077 11.282C145.801 11.2823 180.436 45.9174 180.436 88.6414C180.436 131.365 145.801 166 103.077 166C90.1215 166 77.9098 162.814 67.1819 157.184L40.5823 165.852L35.1028 167.638L36.7834 162.125L43.97 138.552C32.5828 125.08 25.7181 107.662 25.718 88.6414C25.718 45.9172 60.3532 11.282 103.077 11.282Z" stroke="#00E6AB" stroke-width="6"/>
<path d="M97.436 68.641C97.436 60.8202 90.8979 54.282 83.077 54.282C75.2561 54.282 68.718 60.8202 68.718 68.641" stroke="#00E6AB" stroke-width="6"/>
<path d="M150.769 68.641C150.769 60.8202 144.465 54.282 136.923 54.282C129.382 54.282 123.077 60.8202 123.077 68.641" stroke="#00E6AB" stroke-width="6"/>
<path d="M126.154 99.4103C126.154 107.231 119.616 113.769 111.795 113.769C103.974 113.769 97.4358 107.231 97.4358 99.4103" stroke="#00E6AB" stroke-width="6"/>
<rect y="69.6667" width="111.795" height="24.6154" rx="12.3077" fill="#00E6AB" fill-opacity="0.13"/>
<rect x="88.2051" y="94.282" width="111.795" height="24.6154" rx="12.3077" fill="#00E6AB" fill-opacity="0.13"/>
<rect x="47.1794" y="118.897" width="111.795" height="23.5897" rx="11.7949" fill="#00E6AB" fill-opacity="0.13"/>
<path d="M24.4541 25.3357L29.21 30.0916L40.0173 19.2843" stroke="#00E6AB" stroke-width="3" stroke-linecap="round" stroke-linejoin="round"/>
<path d="M184.28 49.7899L189.035 54.5457L199.843 43.7384" stroke="#00E6AB" stroke-width="3" stroke-linecap="round" stroke-linejoin="round"/>
<circle cx="170.769" cy="8.64103" r="7.14103" stroke="#00E6AB" stroke-width="3"/>
<circle cx="18.9743" cy="148.128" r="7.14103" stroke="#00E6AB" stroke-width="3"/>
<circle cx="190.257" cy="148.128" r="7.14103" stroke="#00E6AB" stroke-width="3"/>
</svg>
