<svg width="41" height="40" viewBox="0 0 41 40" fill="none" xmlns="http://www.w3.org/2000/svg">
<path d="M4.5 28.5982C5.81526 28.5982 7.11993 28.1391 8.36473 27.7733C10.9621 27.0099 13.5147 26.032 16.0068 24.9883C16.0474 24.9713 16.0881 24.9542 16.1287 24.9371M16.1287 24.9371C19.388 23.5662 22.6044 21.977 25.6048 20.1178C28.4529 18.3531 31.4339 16.1133 31.8018 12.568C31.9159 11.4692 31.8051 10.3703 31.0995 9.4662C30.372 8.53412 29.2109 7.91224 28.048 7.69753C26.6069 7.43147 24.9926 7.41589 23.5683 7.76352C21.4552 8.27923 19.421 9.71456 18.0434 11.3438C16.3562 13.339 15.474 15.8546 15.1868 18.4086C15.0808 19.3513 15.0105 20.3305 15.0625 21.2794C15.1334 22.5716 15.5597 23.7815 16.1287 24.9371ZM16.1287 24.9371C16.1659 25.0127 16.2037 25.0881 16.2421 25.1632C18.3875 29.3634 22.5383 32.1753 27.3221 32.4688C29.5968 32.6084 31.7711 32.273 33.9325 31.5812C34.7836 31.3088 35.7343 31.0281 36.5 30.5583" stroke="#FDFDFD" stroke-width="3" stroke-linecap="round"/>
</svg>
