<svg width="68" height="40" viewBox="0 0 68 40" fill="none" xmlns="http://www.w3.org/2000/svg">
<path d="M4 28.5982C5.31526 28.5982 6.61993 28.1391 7.86473 27.7733C10.4621 27.0099 13.0147 26.032 15.5068 24.9883C15.5474 24.9713 15.5881 24.9542 15.6287 24.9371M15.6287 24.9371C18.888 23.5662 22.1044 21.977 25.1048 20.1178C27.9529 18.3531 30.9339 16.1133 31.3018 12.568C31.4159 11.4692 31.3051 10.3703 30.5995 9.4662C29.872 8.53412 28.7109 7.91224 27.548 7.69753C26.1069 7.43147 24.4926 7.41589 23.0683 7.76352C20.9552 8.27923 18.921 9.71456 17.5434 11.3438C15.8562 13.339 14.974 15.8546 14.6868 18.4086C14.5808 19.3513 14.5105 20.3305 14.5625 21.2794C14.6334 22.5716 15.0597 23.7815 15.6287 24.9371ZM15.6287 24.9371C15.6659 25.0127 15.7037 25.0881 15.7421 25.1632C17.8875 29.3634 22.0383 32.1753 26.8221 32.4688C29.0968 32.6084 31.2711 32.273 33.4325 31.5812C34.2836 31.3088 35.2343 31.0281 36 30.5583" stroke="white" stroke-width="3" stroke-linecap="round"/>
<path d="M45.256 16.952C45.832 15.448 46.12 14.424 46.12 13.88C46.12 13.336 45.984 13.048 45.712 13.016C44.96 13.016 44.176 14.224 43.36 16.64C42.56 19.04 41.928 21.536 41.464 24.128C41.016 26.704 40.792 28.528 40.792 29.6C40.792 31.408 41.24 32.312 42.136 32.312C42.136 32.424 42.064 32.536 41.92 32.648C41.776 32.76 41.608 32.816 41.416 32.816C40.104 32.816 39.448 31.64 39.448 29.288C39.448 28.424 39.608 27.104 39.928 25.328C40.248 23.536 40.664 21.664 41.176 19.712C41.688 17.76 42.352 16.064 43.168 14.624C43.984 13.168 44.816 12.44 45.664 12.44C46.336 12.44 46.672 12.864 46.672 13.712C46.672 14.352 46.472 15.248 46.072 16.4C45.304 18.64 44.2 20.88 42.76 23.12C42.376 23.712 42.032 24.192 41.728 24.56C41.648 24.656 41.608 24.624 41.608 24.464C41.592 24.16 41.664 23.896 41.824 23.672C43.136 21.704 44.28 19.464 45.256 16.952ZM48.2516 17.624C48.6196 17.624 48.8036 17.872 48.8036 18.368C48.8036 18.864 48.5636 19.264 48.0836 19.568C47.8436 19.728 47.6356 19.808 47.4596 19.808C47.2036 19.808 47.0516 19.728 47.0036 19.568L46.9796 19.496C47.1236 19.496 47.2276 19.344 47.2916 19.04C47.3556 18.72 47.4516 18.408 47.5796 18.104C47.7236 17.784 47.9476 17.624 48.2516 17.624ZM46.7156 31.424C47.1316 31.424 47.7156 30.872 48.4676 29.768C49.2196 28.664 49.8676 27.56 50.4116 26.456L51.2276 24.8H51.8756C51.7796 24.992 51.6516 25.256 51.4916 25.592C51.3476 25.912 51.0516 26.496 50.6036 27.344C50.1556 28.176 49.7236 28.912 49.3076 29.552C48.9076 30.192 48.4516 30.776 47.9396 31.304C47.4436 31.816 47.0116 32.072 46.6436 32.072C45.4596 32.072 44.8676 31.304 44.8676 29.768C44.8676 28.616 45.1956 26.744 45.8516 24.152C45.9156 23.88 45.9636 23.672 45.9956 23.528C46.0436 23.384 46.0916 23.2 46.1396 22.976C46.1876 22.736 46.2356 22.52 46.2836 22.328C46.3636 21.992 46.5076 21.824 46.7156 21.824C47.0036 21.824 47.2116 22.032 47.3396 22.448C47.4036 22.64 47.4356 22.872 47.4356 23.144C47.4356 23.416 47.4036 23.704 47.3396 24.008C47.2756 24.296 47.1716 24.728 47.0276 25.304C46.8836 25.88 46.7716 26.352 46.6916 26.72C46.6116 27.088 46.5236 27.536 46.4276 28.064C46.2516 28.944 46.1636 29.728 46.1636 30.416C46.1636 31.088 46.3476 31.424 46.7156 31.424ZM51.7434 28.832C51.7434 30.512 52.1914 31.352 53.0874 31.352C53.6954 31.352 54.2634 30.976 54.7914 30.224C55.7994 28.816 56.4154 26.96 56.6394 24.656C56.0794 24.416 55.6874 24.024 55.4634 23.48C55.3194 23.144 55.2474 22.864 55.2474 22.64C55.2474 22.4 55.2794 22.192 55.3434 22.016C55.4874 21.584 55.7514 21.368 56.1354 21.368C56.5194 21.368 56.8074 21.616 56.9994 22.112C57.2074 22.592 57.3114 23.208 57.3114 23.96C57.3114 24.008 57.3114 24.064 57.3114 24.128C57.5034 24.192 57.7834 24.224 58.1514 24.224C58.5354 24.224 58.8714 24.072 59.1594 23.768C59.4474 23.464 59.5914 23.184 59.5914 22.928C59.5914 22.864 59.6314 22.824 59.7114 22.808C59.7914 22.776 59.8634 22.776 59.9274 22.808C60.0074 22.84 60.0474 22.888 60.0474 22.952C60.0474 23.416 59.8474 23.856 59.4474 24.272C59.0634 24.688 58.5434 24.896 57.8874 24.896C57.7274 24.896 57.5194 24.88 57.2634 24.848C57.1674 25.936 56.9354 27.016 56.5674 28.088C56.2154 29.144 55.7194 30.064 55.0794 30.848C54.4394 31.616 53.7514 32 53.0154 32C51.6234 32 50.7674 31.256 50.4474 29.768C50.3674 29.336 50.3274 28.896 50.3274 28.448C50.3274 27.44 50.5594 26.36 51.0234 25.208C51.6314 23.704 52.3834 22.768 53.2794 22.4C53.7434 22.24 54.0634 22.216 54.2394 22.328C54.4154 22.44 54.5274 22.568 54.5754 22.712C53.8394 22.712 53.1834 23.4 52.6074 24.776C52.0314 26.152 51.7434 27.504 51.7434 28.832ZM59.953 21.512C59.953 21.336 60.065 21.248 60.289 21.248H61.537C61.617 20.928 61.721 20.528 61.849 20.048L62.185 18.8C62.281 18.432 62.361 18.096 62.425 17.792C62.505 17.488 62.649 17.336 62.857 17.336C63.129 17.336 63.321 17.544 63.433 17.96C63.481 18.136 63.505 18.352 63.505 18.608C63.505 18.864 63.457 19.192 63.361 19.592L62.905 21.248H64.393C64.537 21.248 64.633 21.296 64.681 21.392C64.745 21.488 64.745 21.584 64.681 21.68C64.633 21.76 64.537 21.8 64.393 21.8H62.761C61.769 25.528 61.273 28.168 61.273 29.72C61.273 30.856 61.529 31.424 62.041 31.424C62.457 31.424 63.041 30.872 63.793 29.768C64.545 28.664 65.193 27.56 65.737 26.456L66.553 24.8H67.201C67.105 24.992 66.977 25.256 66.817 25.592C66.673 25.912 66.377 26.496 65.929 27.344C65.481 28.176 65.049 28.912 64.633 29.552C64.233 30.192 63.777 30.776 63.265 31.304C62.769 31.816 62.305 32.072 61.873 32.072C61.441 32.072 61.065 31.936 60.745 31.664C60.441 31.376 60.249 30.976 60.169 30.464C60.073 29.936 60.025 29.4 60.025 28.856C60.025 27.592 60.473 25.24 61.369 21.8H60.289C60.161 21.8 60.073 21.768 60.025 21.704C59.977 21.624 59.953 21.56 59.953 21.512Z" fill="white"/>
</svg>
